<?xml version="1.0" standalone="no"?>
<!DOCTYPE svg PUBLIC "-//W3C//DTD SVG 20010904//EN"
 "http://www.w3.org/TR/2001/REC-SVG-20010904/DTD/svg10.dtd">
<svg version="1.0" xmlns="http://www.w3.org/2000/svg" width="728.000000pt" height="640.000000pt" viewBox="0 0 728.000000 640.000000" preserveAspectRatio="xMidYMid meet">
    <g transform="translate(0.000000,640.000000) scale(0.100000,-0.100000)" fill="currentColor" stroke="none">
      
<path class="path1" d="M3012 6129 c-150 -25 -317 -122 -463 -269 -83 -83 -103 -109 -142
-191 -53 -109 -72 -192 -65 -287 14 -179 127 -317 336 -408 l77 -34 -75 0
c-159 -1 -283 -46 -384 -140 -174 -163 -214 -435 -106 -708 97 -243 253 -389
451 -422 161 -27 348 25 482 134 l54 44 -43 -104 c-80 -193 -164 -462 -218
-699 -49 -213 -106 -598 -106 -712 0 -23 -4 -44 -9 -47 -11 -7 -23 42 -72 286
-47 239 -106 424 -198 613 -78 162 -113 219 -201 328 -130 161 -313 295 -655
477 -343 183 -458 270 -611 465 -8 11 -12 13 -8 5 18 -35 96 -129 150 -180
118 -112 192 -161 474 -315 312 -171 439 -261 578 -410 198 -211 364 -578 442
-970 27 -139 64 -294 85 -360 3 -11 -4 -2 -15 20 -268 496 -506 783 -915 1098
-71 55 -177 148 -235 206 -58 58 -91 88 -73 66 53 -67 171 -177 303 -282 319
-255 541 -500 730 -804 75 -121 215 -388 207 -395 -3 -3 -14 11 -26 30 -55 89
-212 197 -351 241 -194 62 -411 168 -560 273 -115 81 -324 287 -403 398 -158
224 -266 468 -342 774 -27 113 -47 227 -79 465 -2 17 -2 -10 1 -60 6 -121 47
-359 88 -509 46 -167 95 -298 166 -437 226 -445 559 -728 1068 -908 79 -28
173 -67 210 -88 81 -45 170 -132 203 -199 24 -46 26 -61 32 -277 15 -530 91
-1002 226 -1408 37 -110 122 -309 133 -309 2 0 -21 69 -51 152 -189 533 -275
1046 -275 1653 0 470 50 863 168 1311 52 198 188 594 200 582 2 -2 -9 -37 -23
-78 -22 -64 -26 -93 -28 -205 -1 -122 -5 -143 -57 -345 -122 -476 -166 -865
-154 -1360 9 -357 43 -610 127 -933 65 -254 189 -606 240 -682 26 -39 25 -20
-1 51 -21 55 -21 58 -5 118 69 245 248 422 646 636 334 180 458 268 631 447
216 224 340 442 459 803 62 186 144 494 137 513 -2 7 -7 -5 -11 -27 -13 -66
-103 -375 -146 -501 -116 -335 -263 -580 -474 -791 -160 -159 -270 -237 -544
-386 -198 -108 -301 -171 -385 -235 -171 -131 -267 -255 -321 -414 -22 -66
-25 -70 -32 -45 -16 66 24 301 82 474 82 243 218 458 440 691 183 193 319 297
582 444 185 104 258 156 337 238 l60 64 -75 -71 c-90 -85 -135 -115 -352 -236
-228 -126 -328 -199 -492 -358 -353 -343 -513 -626 -591 -1042 l-22 -123 -13
45 c-17 60 -7 414 14 529 78 417 273 774 557 1019 217 188 441 310 849 461
308 115 432 191 515 313 27 41 34 46 39 31 3 -10 4 -6 2 10 -2 15 0 27 3 27 4
0 8 12 9 28 1 21 -3 17 -22 -23 -75 -158 -210 -251 -526 -360 -688 -238 -1072
-536 -1291 -999 -120 -255 -169 -461 -178 -751 l-6 -200 -37 125 c-78 263
-122 478 -154 740 -23 181 -26 755 -6 950 17 164 48 381 73 505 30 150 110
475 117 475 4 0 20 -26 37 -58 88 -168 288 -280 514 -286 451 -14 703 202 659
563 -9 71 -47 203 -83 286 -12 28 -13 36 -3 29 7 -6 39 -32 70 -57 101 -81
248 -137 361 -137 76 0 196 29 273 65 207 99 314 303 314 599 0 109 -15 176
-55 257 -62 121 -178 217 -320 265 -93 32 -262 43 -359 25 -33 -6 -61 -9 -63
-7 -2 2 15 15 39 29 189 112 293 273 305 472 7 108 -10 185 -64 295 -52 106
-206 260 -313 313 -134 65 -272 83 -395 52 -210 -54 -356 -208 -415 -440 -11
-43 -21 -80 -23 -81 -2 -2 -11 28 -21 67 -11 38 -43 120 -74 182 -87 177 -194
269 -351 303 -73 15 -111 16 -189 3z m725 -1124 c18 -13 22 -13 33 0 19 22 56
18 77 -9 14 -18 26 -23 46 -19 18 4 33 -2 50 -18 13 -13 35 -30 50 -38 15 -8
30 -26 34 -40 3 -14 15 -32 25 -40 14 -9 19 -23 17 -46 -2 -18 2 -39 8 -46 22
-27 34 -170 15 -177 -7 -2 -12 -17 -12 -32 0 -18 -12 -42 -30 -63 -16 -19 -30
-39 -30 -44 0 -17 -39 -46 -54 -40 -9 4 -17 -1 -21 -14 -9 -26 -42 -42 -75
-35 -18 3 -33 0 -40 -9 -16 -19 -74 -19 -90 0 -10 12 -15 12 -36 -1 -28 -19
-67 -12 -92 16 -9 11 -28 20 -42 20 -36 0 -70 27 -70 55 0 16 -7 26 -22 31
-39 11 -58 35 -58 71 0 18 -8 45 -17 59 -14 22 -15 31 -4 60 9 25 9 39 1 54
-8 16 -8 28 4 50 8 16 12 38 9 49 -3 13 4 29 21 46 14 14 26 37 26 50 0 28 39
59 63 50 10 -4 17 1 22 14 8 25 46 37 73 22 27 -14 32 -14 32 4 0 16 27 34 50
35 9 0 25 -7 37 -15z m-516 -1142 c-11 -21 -20 -35 -21 -31 0 12 33 78 38 74
2 -2 -6 -21 -17 -43z"/>
<path class="path2" d="M3715 4946 c-12 -8 -33 -12 -57 -8 -39 5 -68 -9 -68 -34 0 -10 7 -7
21 7 16 16 29 20 55 16 18 -3 36 -1 40 5 3 5 24 8 46 6 34 -3 37 -2 22 9 -23
17 -36 16 -59 -1z"/>
<path class="path3" d="M3885 4911 c-3 -6 7 -9 22 -8 20 1 30 -5 40 -23 11 -22 13 -23 13 -4
0 11 -5 25 -12 32 -14 14 -54 16 -63 3z"/>
<path class="path4"  d="M3533 4870 c-19 -8 -23 -17 -22 -47 1 -28 3 -31 6 -13 3 14 14 35 26
48 23 24 22 25 -10 12z"/>
<path class="path5"  d="M3717 4853 c-3 -5 10 -8 28 -9 19 0 32 3 29 8 -6 10 -51 11 -57 1z"/>
<path class="path6"  d="M3870 4843 c33 -6 48 -19 53 -46 4 -19 4 -19 6 4 1 33 -16 49 -53 48
-28 -2 -28 -2 -6 -6z"/>
<path class="path7"  d="M4007 4789 c6 -8 13 -25 15 -39 4 -23 5 -23 13 -6 9 21 -3 47 -26 55
-11 3 -12 1 -2 -10z"/>
<path class="path8"  d="M4035 4703 c10 -9 15 -26 12 -39 -2 -13 0 -21 4 -18 22 13 2 74 -24
74 -5 0 -1 -7 8 -17z"/>
<path class="path9"  d="M3938 4688 c7 -7 12 -24 12 -38 0 -14 -5 -31 -12 -38 -9 -9 -9 -12 0
-12 20 0 35 51 23 77 -6 13 -16 23 -23 23 -9 0 -9 -3 0 -12z"/>
<path class="path10"  d="M4041 4573 c-1 -7 -10 -22 -21 -33 -15 -15 -16 -20 -5 -20 17 0 38
36 31 53 -3 9 -5 9 -5 0z"/>
<path class="path11"  d="M3927 4470 c-3 -11 -20 -27 -39 -35 -27 -12 -29 -14 -10 -15 25 0 62
32 62 55 0 21 -7 19 -13 -5z"/>
<path class="path12"  d="M3829 4414 c-8 -10 -23 -14 -40 -12 -16 3 -26 1 -23 -4 9 -14 61 -9
74 7 7 9 11 18 8 20 -3 3 -11 -2 -19 -11z"/>
<path class="path13"  d="M1010 4540 c0 -8 10 -26 21 -40 11 -14 18 -19 14 -12 -30 57 -35 65
-35 52z"/>
<path class="path14"  d="M1012 4480 c0 -14 2 -19 5 -12 2 6 2 18 0 25 -3 6 -5 1 -5 -13z"/>
<path class="path15"  d="M1013 4410 c0 -25 2 -35 4 -22 2 12 2 32 0 45 -2 12 -4 2 -4 -23z"/>
<path class="path16"  d="M5172 2820 c0 -14 2 -19 5 -12 2 6 2 18 0 25 -3 6 -5 1 -5 -13z"/>
</g>
</svg>
