<?xml version="1.0" standalone="no"?>
<!DOCTYPE svg PUBLIC "-//W3C//DTD SVG 20010904//EN"
 "http://www.w3.org/TR/2001/REC-SVG-20010904/DTD/svg10.dtd">
<svg version="1.0" xmlns="http://www.w3.org/2000/svg"
 width="300.000000pt" height="264.000000pt" viewBox="0 0 300.000000 264.000000"
 preserveAspectRatio="xMidYMid meet">
<metadata>
Created by potrace 1.10, written by Peter Selinger 2001-2011
</metadata>
<g transform="translate(0.000000,264.000000) scale(0.100000,-0.100000)"
fill="#000000" stroke="none">
<path class="path1" d="M1210 2523 c-124 -43 -229 -154 -246 -261 -13 -80 44 -170 130 -208
l31 -13 -30 -1 c-84 -1 -163 -51 -196 -125 -12 -26 -19 -64 -19 -110 0 -60 5
-81 34 -140 18 -39 46 -82 62 -97 78 -73 202 -78 291 -12 38 29 39 29 39 5 0
-11 -3 -18 -7 -15 -9 5 -40 -77 -74 -193 -29 -103 -65 -305 -65 -371 -1 -64
-14 -37 -30 58 -17 102 -45 190 -91 285 -69 143 -152 217 -364 331 -104 56
-212 145 -253 209 -27 44 8 -231 45 -350 85 -268 256 -446 509 -529 59 -19
139 -69 148 -92 3 -8 10 -13 14 -10 5 3 9 -39 10 -92 6 -257 50 -505 119 -680
28 -69 51 -89 84 -71 17 9 20 17 14 42 -11 57 -6 88 23 141 37 65 110 124 253
205 207 116 301 210 385 387 39 81 101 279 117 374 5 30 4 32 -6 16 -51 -80
-85 -103 -251 -165 -198 -75 -319 -151 -408 -258 -100 -120 -156 -266 -167
-433 l-6 -105 -28 115 c-39 160 -47 215 -54 370 -7 159 8 337 43 500 26 123
42 183 43 162 2 -26 83 -101 128 -118 55 -21 160 -23 228 -4 87 24 145 103
145 195 -1 17 -9 55 -20 85 -10 30 -17 56 -16 58 2 1 15 -7 29 -18 71 -56 168
-66 254 -26 87 41 133 128 133 255 0 69 -40 142 -97 180 -54 36 -89 44 -173
39 -58 -3 -60 -2 -39 12 52 34 83 66 100 105 24 53 24 147 0 200 -23 53 -117
138 -168 153 -140 42 -271 -35 -301 -175 l-8 -38 -18 55 c-38 120 -108 180
-206 179 -30 0 -62 -3 -70 -6z m122 -15 c98 -29 159 -152 183 -370 l6 -57 -37
-10 c-34 -9 -39 -8 -53 12 -26 37 -94 108 -99 103 -2 -3 21 -33 51 -67 l56
-61 -22 -32 c-12 -17 -22 -32 -23 -34 -1 -1 -37 7 -80 18 -43 11 -104 24 -136
30 -63 12 -137 57 -169 102 -27 37 -35 104 -20 151 24 70 147 180 241 213 44
16 54 17 102 2z m491 -25 c46 -23 118 -96 143 -145 31 -61 30 -111 -2 -176
-29 -58 -80 -100 -191 -156 -82 -41 -83 -41 -83 -22 0 8 -14 28 -30 44 l-30
30 23 29 c44 55 49 68 10 26 -36 -38 -43 -41 -84 -38 l-44 3 -13 105 c-12 100
-12 107 9 163 49 134 179 195 292 137z m-237 -426 c4 -4 16 -7 26 -7 10 0 18
-4 18 -10 0 -5 -8 -10 -17 -10 -15 0 -16 -2 -3 -10 9 -6 17 -5 22 3 6 8 14 5
27 -13 23 -29 34 -73 17 -67 -6 2 -11 9 -11 14 0 6 -3 15 -7 19 -4 3 -5 -4 -2
-17 3 -13 6 -29 6 -36 1 -6 7 -9 15 -6 19 7 16 -14 -7 -63 -18 -37 -40 -54
-75 -58 -5 -1 -14 -4 -20 -7 -30 -17 -105 6 -140 43 -26 28 -29 38 -29 96 0
43 4 67 12 70 7 2 12 10 12 17 0 16 47 48 60 40 5 -3 11 -1 15 4 6 11 70 9 81
-2z m-386 -37 c36 -5 93 -17 128 -26 l63 -17 -3 -40 c-3 -38 -4 -40 -75 -69
-40 -17 -73 -34 -73 -39 0 -4 24 3 53 16 80 36 107 41 107 19 0 -11 12 -30 25
-43 29 -27 32 -20 -51 -137 -77 -109 -148 -153 -247 -154 -90 0 -133 30 -182
127 -54 109 -63 188 -29 256 32 63 71 92 147 107 57 11 63 11 137 0z m856 -18
c83 -43 124 -116 111 -200 -4 -20 -9 -55 -13 -77 -17 -106 -90 -166 -205 -167
-95 0 -162 45 -238 159 -38 57 -50 84 -46 100 3 13 10 23 15 23 6 0 10 9 10
19 0 31 13 33 80 12 76 -24 70 -14 -8 14 -47 17 -58 24 -60 46 -3 23 4 29 65
56 89 41 96 42 178 39 47 -2 84 -10 111 -24z m-356 -295 c115 -187 118 -335 7
-397 -35 -20 -59 -25 -142 -28 -89 -3 -105 -1 -144 20 -25 13 -59 40 -75 61
-28 35 -31 45 -31 110 1 80 18 121 102 249 46 69 56 77 69 57 3 -6 17 -9 30
-6 32 6 35 -1 44 -92 l7 -76 2 83 c1 69 4 84 19 88 9 3 24 9 32 14 21 11 24 8
80 -83z m-1230 66 c0 -11 111 -81 248 -158 62 -35 137 -84 167 -109 102 -87
177 -232 220 -421 13 -57 26 -114 30 -127 4 -12 -15 14 -43 59 -86 142 -187
256 -317 358 -27 21 -74 62 -104 89 -32 30 -45 38 -30 20 13 -17 59 -60 102
-95 163 -133 301 -297 377 -448 l22 -45 -45 40 c-27 24 -71 48 -113 63 -268
92 -439 277 -513 551 -19 71 -33 214 -23 225 8 8 22 6 22 -2z m815 -393 c-14
-49 -38 -152 -55 -240 -21 -116 -30 -327 -20 -466 13 -169 39 -291 97 -457 46
-131 47 -156 6 -143 -14 4 -28 31 -46 84 -127 370 -131 846 -10 1247 26 85 28
88 35 55 4 -22 2 -52 -7 -80z m808 -311 c-4 -53 -57 -208 -94 -278 -83 -155
-181 -248 -369 -351 -166 -91 -222 -140 -267 -235 l-24 -50 6 60 c25 237 200
465 470 615 67 37 113 72 134 104 8 12 -5 3 -30 -19 -24 -22 -75 -58 -114 -79
-103 -58 -153 -93 -224 -160 -129 -123 -207 -254 -237 -396 -8 -41 -18 -77
-21 -80 -3 -3 -3 50 0 117 5 100 12 139 37 215 43 127 81 190 169 279 83 83
175 142 291 188 200 78 256 99 265 97 6 -2 9 -14 8 -27z"/>
<path d="M1508 2043 c-16 -2 -28 -8 -28 -13 0 -4 16 -4 34 0 19 4 37 5 40 2 4
-3 6 0 6 6 0 12 -3 12 -52 5z"/>
<path d="M2334 326 c-19 -19 -34 -40 -34 -46 0 -7 10 0 22 15 51 66 137 64
183 -3 28 -41 33 -37 10 8 -19 37 -62 60 -111 60 -28 0 -44 -8 -70 -34z"/>
<path d="M1994 262 c-14 -2 -24 -12 -27 -30 -7 -34 -1 -42 29 -42 30 0 32 20
2 21 -19 1 -19 2 -5 6 10 3 16 11 13 18 -3 8 3 15 12 17 24 5 1 15 -24 10z"/>
<path d="M2192 258 c-6 -6 -30 -11 -53 -12 -41 -1 -71 -26 -32 -26 17 -1 17
-2 -2 -16 -20 -16 -20 -16 0 -12 14 3 19 11 17 27 -1 15 2 21 10 18 7 -2 13
-14 12 -26 0 -11 3 -21 8 -21 4 0 8 4 8 8 0 5 6 17 14 27 13 18 14 18 9 -8 -5
-25 -3 -27 26 -27 17 0 31 5 31 10 0 6 -9 10 -20 10 -23 0 -24 4 -10 30 12 22
-1 35 -18 18z"/>
<path d="M2400 230 c0 -43 6 -48 35 -26 21 15 15 40 -14 56 -20 10 -21 8 -21
-30z"/>
<path d="M2040 231 c-15 -29 -12 -37 13 -37 29 0 38 14 24 38 -15 23 -24 23
-37 -1z"/>
<path d="M2292 233 c-17 -31 -15 -40 11 -38 12 1 23 9 25 18 2 9 7 17 12 17 4
0 6 -9 3 -20 -4 -16 -1 -20 18 -19 22 0 22 1 4 8 -19 8 -19 8 0 19 11 6 16 12
10 12 -5 0 -3 5 5 10 11 7 5 9 -22 8 -31 -1 -38 -5 -39 -22 -1 -18 -2 -18 -8
4 l-7 25 -12 -22z"/>
<path d="M2472 238 c-7 -7 -12 -20 -12 -29 0 -14 9 -17 48 -15 51 1 62 8 55
37 -7 26 -19 24 -39 -6 -18 -27 -41 -33 -41 -10 0 8 4 12 9 9 4 -3 8 2 8 10 0
19 -11 21 -28 4z"/>
<path d="M2580 221 c0 -26 3 -28 30 -27 31 1 50 19 49 46 0 9 -6 5 -14 -10
l-14 -25 -1 25 0 25 -21 -25 c-20 -24 -20 -24 -14 -2 4 13 2 22 -4 22 -6 0
-11 -13 -11 -29z"/>
<path d="M2702 225 c-14 -31 -15 -35 -4 -35 8 0 32 43 32 55 0 15 -19 1 -28
-20z"/>
<path d="M2766 228 c-17 -24 -13 -38 12 -38 30 0 47 17 34 33 -7 7 -9 17 -5
20 3 4 -1 7 -10 7 -9 0 -23 -10 -31 -22z"/>
<path d="M2848 202 c-25 -26 -47 -53 -49 -60 -3 -9 -22 -8 -79 5 -117 27 -494
24 -654 -6 -66 -12 -122 -24 -125 -28 -3 -3 8 -3 25 0 17 3 96 13 175 23 178
20 473 15 591 -11 89 -19 107 -13 168 49 l34 36 -20 21 -20 20 -46 -49z m25
-24 c-23 -23 -46 -39 -49 -35 -10 10 56 77 75 77 10 0 0 -16 -26 -42z"/>
<path d="M2343 115 c-18 -19 -16 -45 2 -45 10 0 15 10 15 30 0 34 0 34 -17 15z"/>
<path d="M2055 100 c-7 -12 2 -30 16 -30 6 0 7 5 4 10 -3 6 -2 10 4 10 5 0 13
-4 16 -10 7 -11 48 -14 58 -4 8 8 -3 34 -15 34 -6 0 -8 -7 -4 -15 3 -8 1 -15
-4 -15 -6 0 -10 7 -10 15 0 8 -5 15 -11 15 -6 0 -8 -7 -5 -17 6 -16 6 -16 -12
0 -21 20 -28 21 -37 7z"/>
<path d="M2238 103 c-10 -2 -18 -10 -18 -17 0 -18 40 -14 41 4 0 10 3 9 9 -5
8 -19 9 -19 9 3 1 22 -6 24 -41 15z"/>
<path d="M2406 94 c-4 -9 -4 -19 -1 -22 3 -3 5 1 5 9 0 11 2 11 10 -1 8 -12
10 -12 10 5 0 15 2 17 9 6 5 -7 14 -10 20 -7 6 4 11 2 11 -5 0 -7 2 -10 5 -7
3 3 2 13 -1 22 -5 14 -9 15 -15 4 -7 -10 -9 -10 -9 0 0 18 -37 15 -44 -4z"/>
<path d="M2560 90 c0 -11 6 -20 13 -20 8 0 7 -4 -3 -10 -13 -9 -13 -10 1 -10
17 0 39 19 39 35 0 5 -4 4 -9 -3 -6 -10 -11 -9 -22 4 -9 12 -10 15 -1 10 6 -4
12 -2 12 3 0 6 -7 11 -15 11 -8 0 -15 -9 -15 -20z"/>
<path d="M2620 89 c0 -10 4 -19 10 -19 5 0 7 7 4 15 -8 21 6 19 22 -2 10 -14
15 -15 24 -6 18 17 5 30 -30 31 -23 0 -30 -4 -30 -19z"/>
</g>
</svg>
